<svg width="1011" height="1104" viewBox="0 0 1011 1104" fill="none" xmlns="http://www.w3.org/2000/svg">
<rect width="1011" height="1024" fill="url(#paint0_linear_698_9072)"/>
<path opacity="0.2" d="M366.885 412.18C395.16 399.272 446.28 402.702 468.306 406.031C525.619 414.447 521.332 426.777 566.665 435.229C611.999 443.681 651.185 479.794 619.682 508.223C588.179 536.653 522.096 535.885 446.796 514.37C371.496 492.856 331.541 428.315 366.885 412.18Z" fill="#E9F2F7"/>
<path opacity="0.2" d="M330.624 490.834C253.496 456.867 168.753 487.89 136.022 507.647C-58.5803 631.824 -2.15148 832.855 89.1298 980.309C180.411 1127.76 343.313 1122.15 619.965 1070.19C896.618 1018.23 971.894 637.666 740.152 603.171C508.41 568.675 427.035 533.293 330.624 490.834Z" fill="#E9F2F7"/>
<circle cx="607.156" cy="713.752" r="121.384" transform="rotate(26.3683 607.156 713.752)" fill="url(#paint1_linear_698_9072)"/>
<g clip-path="url(#clip0_698_9072)">
<path d="M254.048 612.749C251.855 600.87 259.708 589.463 271.587 587.271L494.969 546.042C506.848 543.85 518.255 551.703 520.448 563.581L579.175 881.776C581.367 893.655 573.514 905.062 561.636 907.254L338.253 948.483C326.374 950.675 314.967 942.822 312.775 930.943L254.048 612.749Z" fill="white"/>
<g filter="url(#filter0_i_698_9072)">
<path fill-rule="evenodd" clip-rule="evenodd" d="M496.458 554.108L273.075 595.336C265.651 596.707 260.743 603.836 262.114 611.26L320.84 929.455C322.211 936.879 329.34 941.787 336.764 940.417L560.147 899.189C567.571 897.818 572.479 890.689 571.109 883.265L512.382 565.07C511.012 557.646 503.882 552.738 496.458 554.108ZM271.587 587.271C259.708 589.463 251.855 600.87 254.048 612.749L312.775 930.943C314.967 942.822 326.374 950.675 338.253 948.483L561.636 907.254C573.514 905.062 581.367 893.655 579.175 881.776L520.448 563.581C518.255 551.703 506.848 543.85 494.969 546.042L271.587 587.271Z" fill="#722ACC"/>
</g>
<g filter="url(#filter1_dii_698_9072)">
<path fill-rule="evenodd" clip-rule="evenodd" d="M340.928 584.471C339.33 579.609 343.379 557.197 343.379 557.197C343.614 555.132 345.625 551.001 351.789 551.001C357.953 551.001 359.808 550.835 359.966 550.752C359.504 541.624 362.34 522.745 377.378 520.255C396.176 517.141 403.672 532.713 405.978 538.94C410.745 538.556 420.716 538.019 422.469 538.94C424.66 540.092 441.895 564.457 433.374 569.65C426.557 573.804 373.518 582.993 347.851 587.068C347.851 587.068 341.8 587.124 340.928 584.471ZM381.909 545.506C387.426 545.506 391.899 541.319 391.899 536.154C391.899 530.988 387.426 526.801 381.909 526.801C376.392 526.801 371.919 530.988 371.919 536.154C371.919 541.319 376.392 545.506 381.909 545.506Z" fill="#32049A"/>
</g>
<path d="M338.896 634.078C340.427 634.089 341.778 634.611 342.949 635.646C344.119 636.68 344.844 637.976 345.123 639.533C345.376 640.94 345.247 642.246 344.737 643.452C344.248 644.629 343.405 645.635 342.207 646.472C341.009 647.309 339.518 647.888 337.735 648.207L326.395 650.241L321.679 623.943L332.53 621.998C334.313 621.678 335.897 621.692 337.282 622.04C338.691 622.384 339.815 623.012 340.653 623.925C341.515 624.833 342.064 625.94 342.298 627.246C342.573 628.778 342.388 630.133 341.744 631.312C341.125 632.486 340.175 633.408 338.896 634.078ZM328.9 633.848L333.722 632.984C334.978 632.758 335.895 632.309 336.474 631.634C337.049 630.935 337.242 630.058 337.052 629.003C336.863 627.948 336.378 627.193 335.596 626.737C334.814 626.281 333.796 626.165 332.54 626.39L327.717 627.255L328.9 633.848ZM336.211 644.048C337.492 643.818 338.43 643.339 339.025 642.61C339.646 641.876 339.857 640.957 339.659 639.852C339.456 638.722 338.922 637.91 338.056 637.417C337.185 636.899 336.109 636.755 334.828 636.985L329.629 637.917L330.899 645L336.211 644.048ZM351.626 618.574L354.544 634.85C354.864 636.633 355.574 637.918 356.675 638.706C357.771 639.469 359.16 639.699 360.843 639.398C362.551 639.091 363.786 638.39 364.549 637.294C365.307 636.173 365.526 634.721 365.206 632.938L362.288 616.662L367.6 615.71L370.512 631.948C370.913 634.183 370.763 636.167 370.063 637.9C369.383 639.603 368.297 640.991 366.804 642.062C365.336 643.129 363.61 643.84 361.625 644.196C359.666 644.547 357.813 644.478 356.066 643.987C354.344 643.492 352.881 642.562 351.677 641.197C350.469 639.806 349.664 637.993 349.263 635.758L346.352 619.52L351.626 618.574ZM382.427 613.051C385.19 612.556 387.711 612.661 389.989 613.367C392.293 614.069 394.19 615.323 395.68 617.13C397.191 618.907 398.183 621.114 398.656 623.751C399.129 626.389 398.966 628.803 398.166 630.994C397.387 633.156 396.04 634.966 394.123 636.425C392.232 637.878 389.905 638.853 387.143 639.348L377.95 640.997L373.235 614.699L382.427 613.051ZM386.15 634.899C388.913 634.403 390.913 633.267 392.15 631.49C393.387 629.713 393.76 627.455 393.269 624.717C392.778 621.98 391.641 619.98 389.86 618.718C388.074 617.431 385.799 617.035 383.036 617.531L379.306 618.199L382.421 635.568L386.15 634.899ZM420.507 614.389C419.706 613.392 418.726 612.7 417.568 612.311C416.409 611.923 415.127 611.854 413.72 612.107C412.163 612.386 410.845 612.985 409.765 613.905C408.686 614.824 407.924 615.998 407.48 617.425C407.036 618.853 406.967 620.421 407.273 622.129C407.589 623.887 408.202 625.358 409.115 626.543C410.052 627.723 411.199 628.554 412.556 629.036C413.913 629.519 415.408 629.614 417.04 629.321C419.05 628.961 420.6 628.139 421.692 626.854C422.779 625.544 423.353 623.899 423.412 621.918L414.37 623.539L413.648 619.508L427.889 616.955L428.713 621.551C428.69 623.447 428.24 625.278 427.364 627.042C426.488 628.807 425.219 630.331 423.557 631.614C421.915 632.867 419.964 633.697 417.703 634.102C415.166 634.557 412.767 634.404 410.505 633.643C408.263 632.852 406.369 631.546 404.824 629.723C403.304 627.896 402.312 625.688 401.848 623.101C401.384 620.514 401.548 618.1 402.338 615.858C403.149 613.587 404.471 611.704 406.303 610.209C408.155 608.684 410.337 607.697 412.849 607.246C415.813 606.715 418.518 606.982 420.964 608.047C423.406 609.087 425.275 610.838 426.573 613.302L420.507 614.389ZM436.273 607.791L437.455 614.384L446.309 612.796L447.059 616.978L438.205 618.566L439.455 625.536L449.439 623.745L450.209 628.04L434.95 630.776L430.228 604.441L445.487 601.705L446.257 606L436.273 607.791ZM468.721 597.578L469.484 601.836L462.476 603.092L466.428 625.132L461.154 626.078L457.202 604.038L450.194 605.294L449.431 601.037L468.721 597.578Z" fill="black"/>
<g filter="url(#filter2_ii_698_9072)">
<circle cx="330.922" cy="703.403" r="19.9354" transform="rotate(-9.09103 330.922 703.403)" fill="#FD760D"/>
</g>
<path d="M321.317 705.468L328.414 710.607L339.551 695.227" stroke="white" stroke-width="4.23359" stroke-linecap="round" stroke-linejoin="round"/>
<path d="M359.684 686.771L412.217 675.633" stroke="#121212" stroke-width="5.46799" stroke-linecap="round" stroke-linejoin="round"/>
<path d="M363.057 702.366L448.129 683.47" stroke="#121212" stroke-width="5.46799" stroke-linecap="round" stroke-linejoin="round"/>
<path d="M421.293 673.053L448.016 667.055" stroke="#121212" stroke-width="5.46799" stroke-linecap="round" stroke-linejoin="round"/>
<path d="M457.07 664.594L483.794 658.597" stroke="#121212" stroke-width="5.46799" stroke-linecap="round" stroke-linejoin="round"/>
<g filter="url(#filter3_ii_698_9072)">
<circle cx="347.202" cy="777.361" r="19.9354" transform="rotate(-9.09103 347.202 777.361)" fill="#FD760D"/>
</g>
<path d="M337.598 779.425L344.695 784.564L355.831 769.185" stroke="white" stroke-width="4.23359" stroke-linecap="round" stroke-linejoin="round"/>
<path d="M375.961 760.732L407.138 754.419" stroke="#121212" stroke-width="5.46799" stroke-linecap="round" stroke-linejoin="round"/>
<path d="M379.335 776.33L502.139 748.822" stroke="#121212" stroke-width="5.46799" stroke-linecap="round" stroke-linejoin="round"/>
<path d="M415.988 752.071L464.29 741.015" stroke="#121212" stroke-width="5.46799" stroke-linecap="round" stroke-linejoin="round"/>
<path d="M473.349 738.554L500.072 732.557" stroke="#121212" stroke-width="5.46799" stroke-linecap="round" stroke-linejoin="round"/>
<g filter="url(#filter4_ii_698_9072)">
<circle cx="364.251" cy="846.648" r="19.9354" transform="rotate(-7.62248 364.251 846.648)" fill="#FD760D"/>
</g>
<path d="M354.597 848.47L361.56 853.79L373.087 838.7" stroke="white" stroke-width="4.23359" stroke-linecap="round" stroke-linejoin="round"/>
<path d="M393.432 830.757L435.492 822.682" stroke="#121212" stroke-width="5.46799" stroke-linecap="round" stroke-linejoin="round"/>
<path d="M396.405 846.438L435.855 838.399" stroke="#121212" stroke-width="5.46799" stroke-linecap="round" stroke-linejoin="round"/>
<path d="M443.621 821.065L461.682 817.274" stroke="#121212" stroke-width="5.46799" stroke-linecap="round" stroke-linejoin="round"/>
<path d="M469.623 815.641L518.218 805.781" stroke="#121212" stroke-width="5.46799" stroke-linecap="round" stroke-linejoin="round"/>
<g filter="url(#filter5_ii_698_9072)">
<path d="M476.714 716.613C478.648 710.891 484.854 707.821 490.576 709.755L625.842 755.48C634.424 758.381 639.03 767.691 636.128 776.273L571.816 966.525C568.915 975.108 559.605 979.713 551.023 976.812L415.757 931.087C410.035 929.153 406.965 922.947 408.899 917.225L476.714 716.613Z" fill="#32049A"/>
</g>
<g filter="url(#filter6_i_698_9072)">
<rect x="484.476" y="729.898" width="133.931" height="36.1293" rx="5.46799" transform="rotate(18.6772 484.476 729.898)" fill="#D6E6FF"/>
</g>
<path d="M486.717 757.994L487.495 755.693L492.096 757.249L495.207 748.046L492.907 747.268L493.684 744.967L495.985 745.745L496.763 743.444L501.364 745L496.698 758.804L501.299 760.36L500.522 762.661L486.717 757.994ZM507.687 765.083L508.465 762.782L506.164 762.004L506.942 759.703L504.641 758.926L506.974 752.023L509.275 752.801L510.053 750.5L512.353 751.278L513.131 748.977L520.033 751.311L519.256 753.611L521.556 754.389L520.779 756.69L523.079 757.468L520.746 764.37L518.445 763.592L517.668 765.893L515.367 765.115L514.589 767.416L507.687 765.083ZM510.765 763.56L515.367 765.115L518.478 755.912L516.177 755.134L516.955 752.834L512.353 751.278L509.242 760.481L511.543 761.259L510.765 763.56ZM526.356 771.394L527.911 766.792L532.513 768.348L530.958 772.949L526.356 771.394ZM545.025 777.704L545.803 775.404L543.502 774.626L544.28 772.325L541.979 771.547L544.312 764.645L546.613 765.423L547.391 763.122L549.692 763.9L550.469 761.599L557.372 763.932L556.594 766.233L558.895 767.011L558.117 769.312L560.418 770.089L558.084 776.992L555.784 776.214L555.006 778.515L552.705 777.737L551.927 780.038L545.025 777.704ZM548.104 776.181L552.705 777.737L555.816 768.534L553.515 767.756L554.293 765.455L549.692 763.9L546.581 773.103L548.881 773.881L548.104 776.181ZM563.694 784.015L564.472 781.715L562.171 780.937L562.949 778.636L560.648 777.858L562.981 770.956L565.282 771.734L566.06 769.433L568.361 770.211L569.138 767.91L576.041 770.243L575.263 772.544L577.564 773.322L576.786 775.623L579.087 776.4L576.753 783.303L574.453 782.525L573.675 784.826L571.374 784.048L570.596 786.349L563.694 784.015ZM566.773 782.492L571.374 784.048L574.485 774.845L572.184 774.067L572.962 771.766L568.361 770.211L565.25 779.414L567.55 780.192L566.773 782.492ZM582.363 790.326L583.141 788.025L580.84 787.248L581.618 784.947L579.317 784.169L581.65 777.267L583.951 778.045L584.729 775.744L587.03 776.522L587.807 774.221L594.71 776.554L593.932 778.855L596.233 779.633L595.455 781.933L597.756 782.711L595.422 789.613L593.122 788.836L592.344 791.136L590.043 790.359L589.265 792.659L582.363 790.326ZM585.442 788.803L590.043 790.359L593.154 781.156L590.853 780.378L591.631 778.077L587.03 776.522L583.919 785.725L586.219 786.502L585.442 788.803Z" fill="black"/>
<g filter="url(#filter7_di_698_9072)">
<rect x="470.168" y="772.231" width="39.1782" height="30.4397" rx="2.734" transform="rotate(18.6772 470.168 772.231)" fill="#D6E6FF"/>
</g>
<g filter="url(#filter8_di_698_9072)">
<rect x="515.042" y="787.408" width="39.1782" height="30.4397" rx="2.734" transform="rotate(18.6772 515.042 787.408)" fill="#D6E6FF"/>
</g>
<g filter="url(#filter9_di_698_9072)">
<rect x="559.929" y="802.575" width="39.1782" height="30.4397" rx="2.734" transform="rotate(18.6772 559.929 802.575)" fill="#D6E6FF"/>
</g>
<g filter="url(#filter10_di_698_9072)">
<rect x="457.682" y="809.174" width="39.1782" height="30.4397" rx="2.734" transform="rotate(18.6772 457.682 809.174)" fill="#D6E6FF"/>
</g>
<g filter="url(#filter11_di_698_9072)">
<rect x="445.196" y="846.102" width="39.1782" height="30.4397" rx="2.734" transform="rotate(18.6772 445.196 846.102)" fill="#D6E6FF"/>
</g>
<g filter="url(#filter12_di_698_9072)">
<rect x="432.702" y="883.045" width="39.1782" height="30.4397" rx="2.734" transform="rotate(18.6772 432.702 883.045)" fill="#D6E6FF"/>
</g>
<g filter="url(#filter13_di_698_9072)">
<rect x="502.559" y="824.338" width="39.1782" height="30.4397" rx="2.734" transform="rotate(18.6772 502.559 824.338)" fill="#D6E6FF"/>
</g>
<g filter="url(#filter14_di_698_9072)">
<rect x="490.072" y="861.279" width="39.1782" height="30.4397" rx="2.734" transform="rotate(18.6772 490.072 861.279)" fill="#D6E6FF"/>
</g>
<g filter="url(#filter15_di_698_9072)">
<rect x="477.587" y="898.219" width="39.1782" height="30.4397" rx="2.734" transform="rotate(18.6772 477.587 898.219)" fill="#D6E6FF"/>
</g>
<g filter="url(#filter16_di_698_9072)">
<rect x="547.442" y="839.513" width="39.1782" height="30.4397" rx="2.734" transform="rotate(18.6772 547.442 839.513)" fill="#D6E6FF"/>
</g>
<g filter="url(#filter17_di_698_9072)">
<rect x="534.949" y="876.456" width="39.1782" height="69.4312" rx="2.734" transform="rotate(18.6772 534.949 876.456)" fill="#DB28EB"/>
</g>
</g>
<path d="M248.336 933.609H642.666" stroke="#121212" stroke-width="6.61775" stroke-linecap="round" stroke-linejoin="round"/>
<g filter="url(#filter18_d_698_9072)">
<path d="M227.083 235.677L244.433 188.254C245.41 185.735 246.952 183.859 249.06 182.625C251.168 181.34 253.558 180.697 256.231 180.697C258.904 180.697 261.295 181.314 263.403 182.548C265.562 183.781 267.104 185.658 268.029 188.177L285.379 235.677H269.571L266.41 225.807H245.744L242.428 235.677H227.083ZM249.214 214.086H263.017L257.079 194.577C257.028 194.371 256.925 194.217 256.771 194.114C256.617 194.012 256.437 193.96 256.231 193.96C256.077 193.96 255.923 194.012 255.769 194.114C255.666 194.217 255.563 194.371 255.46 194.577L249.214 214.086ZM310.661 194.963C314.003 194.963 317.01 195.477 319.683 196.505C322.356 197.533 324.618 199.024 326.469 200.977C328.371 202.879 329.81 205.141 330.787 207.763C331.815 210.385 332.329 213.264 332.329 216.4C332.329 220.409 331.507 223.931 329.862 226.964C328.268 229.997 326.032 232.362 323.153 234.058C320.274 235.755 317.01 236.603 313.36 236.603C311.921 236.603 310.533 236.423 309.196 236.063C307.859 235.703 306.651 235.189 305.572 234.521C304.492 233.801 303.541 232.953 302.719 231.976H302.41V252.256H288.993V216.554C288.993 212.184 289.892 208.38 291.692 205.141C293.491 201.903 296.01 199.409 299.249 197.661C302.539 195.862 306.343 194.963 310.661 194.963ZM310.661 206.606C309.119 206.606 307.731 207.018 306.497 207.84C305.263 208.611 304.312 209.691 303.644 211.079C302.976 212.416 302.641 213.983 302.641 215.783C302.641 217.428 302.976 218.944 303.644 220.332C304.312 221.669 305.263 222.748 306.497 223.571C307.731 224.342 309.119 224.728 310.661 224.728C312.306 224.728 313.72 224.342 314.902 223.571C316.136 222.748 317.061 221.669 317.678 220.332C318.347 218.944 318.681 217.428 318.681 215.783C318.681 213.983 318.347 212.416 317.678 211.079C317.061 209.691 316.136 208.611 314.902 207.84C313.72 207.018 312.306 206.606 310.661 206.606ZM360.136 194.963C363.478 194.963 366.485 195.477 369.158 196.505C371.831 197.533 374.093 199.024 375.944 200.977C377.846 202.879 379.285 205.141 380.262 207.763C381.29 210.385 381.804 213.264 381.804 216.4C381.804 220.409 380.982 223.931 379.337 226.964C377.743 229.997 375.507 232.362 372.628 234.058C369.749 235.755 366.485 236.603 362.835 236.603C361.395 236.603 360.007 236.423 358.671 236.063C357.334 235.703 356.126 235.189 355.047 234.521C353.967 233.801 353.016 232.953 352.194 231.976H351.885V252.256H338.468V216.554C338.468 212.184 339.367 208.38 341.167 205.141C342.966 201.903 345.485 199.409 348.723 197.661C352.014 195.862 355.818 194.963 360.136 194.963ZM360.136 206.606C358.594 206.606 357.206 207.018 355.972 207.84C354.738 208.611 353.787 209.691 353.119 211.079C352.451 212.416 352.116 213.983 352.116 215.783C352.116 217.428 352.451 218.944 353.119 220.332C353.787 221.669 354.738 222.748 355.972 223.571C357.206 224.342 358.594 224.728 360.136 224.728C361.781 224.728 363.195 224.342 364.377 223.571C365.611 222.748 366.536 221.669 367.153 220.332C367.821 218.944 368.156 217.428 368.156 215.783C368.156 213.983 367.821 212.416 367.153 211.079C366.536 209.691 365.611 208.611 364.377 207.84C363.195 207.018 361.781 206.606 360.136 206.606ZM388.174 235.677V179.386H401.514V235.677H388.174ZM409.334 235.677V195.965H422.752V235.677H409.334ZM416.043 191.647C413.987 191.647 412.213 190.901 410.722 189.411C409.283 187.92 408.563 186.172 408.563 184.167C408.563 182.111 409.283 180.363 410.722 178.923C412.213 177.433 413.987 176.687 416.043 176.687C418.099 176.687 419.847 177.433 421.287 178.923C422.778 180.363 423.523 182.111 423.523 184.167C423.523 186.172 422.778 187.92 421.287 189.411C419.847 190.901 418.099 191.647 416.043 191.647ZM450.544 235.677C446.431 235.677 442.756 234.829 439.517 233.133C436.278 231.436 433.734 229.097 431.883 226.116C430.032 223.134 429.107 219.715 429.107 215.86C429.107 212.004 430.032 208.586 431.883 205.604C433.734 202.571 436.278 200.206 439.517 198.51C442.756 196.813 446.431 195.965 450.544 195.965H457.407V207.069H451.392C449.593 207.069 448.025 207.455 446.688 208.226C445.352 208.997 444.324 210.051 443.604 211.387C442.884 212.724 442.524 214.215 442.524 215.86C442.524 217.505 442.884 219.021 443.604 220.409C444.324 221.746 445.352 222.8 446.688 223.571C448.025 224.342 449.593 224.728 451.392 224.728H457.407V235.677H450.544ZM479.751 236.68C476.306 236.68 473.247 235.806 470.574 234.058C467.901 232.31 465.793 229.92 464.251 226.887C462.76 223.802 462.015 220.307 462.015 216.4C462.015 212.287 462.914 208.611 464.714 205.373C466.564 202.134 469.135 199.615 472.425 197.816C475.715 195.965 479.596 195.04 484.069 195.04C488.438 195.04 492.191 195.939 495.327 197.739C498.514 199.538 500.982 202.005 502.73 205.141C504.478 208.277 505.352 211.876 505.352 215.937V235.677H492.474V229.509H492.165C491.446 230.897 490.52 232.13 489.389 233.21C488.258 234.289 486.896 235.138 485.303 235.755C483.76 236.371 481.91 236.68 479.751 236.68ZM483.76 225.036C485.405 225.036 486.819 224.651 488.001 223.879C489.184 223.057 490.109 221.952 490.777 220.564C491.446 219.176 491.78 217.608 491.78 215.86C491.78 214.112 491.446 212.595 490.777 211.31C490.109 209.974 489.184 208.92 488.001 208.149C486.819 207.326 485.405 206.915 483.76 206.915C482.167 206.915 480.753 207.326 479.519 208.149C478.337 208.92 477.411 209.974 476.743 211.31C476.075 212.595 475.741 214.112 475.741 215.86C475.741 217.608 476.075 219.176 476.743 220.564C477.411 221.952 478.337 223.057 479.519 223.879C480.753 224.651 482.167 225.036 483.76 225.036ZM528.526 235.677C524.773 235.677 521.817 234.624 519.658 232.516C517.55 230.357 516.497 227.427 516.497 223.725V186.48H529.837V222.723C529.837 223.288 530.042 223.777 530.454 224.188C530.865 224.548 531.353 224.728 531.919 224.728H540.555V235.677H528.526ZM510.251 206.452V195.965H540.555V206.452H510.251ZM547.216 235.677V195.965H560.634V235.677H547.216ZM553.925 191.647C551.869 191.647 550.095 190.901 548.604 189.411C547.165 187.92 546.445 186.172 546.445 184.167C546.445 182.111 547.165 180.363 548.604 178.923C550.095 177.433 551.869 176.687 553.925 176.687C555.981 176.687 557.729 177.433 559.169 178.923C560.66 180.363 561.405 182.111 561.405 184.167C561.405 186.172 560.66 187.92 559.169 189.411C557.729 190.901 555.981 191.647 553.925 191.647ZM588.657 236.603C584.648 236.603 580.998 235.729 577.707 233.981C574.469 232.182 571.873 229.714 569.919 226.578C567.966 223.442 566.989 219.844 566.989 215.783C566.989 211.773 567.966 208.2 569.919 205.064C571.873 201.928 574.494 199.486 577.785 197.739C581.075 195.939 584.725 195.04 588.734 195.04C592.744 195.04 596.368 195.939 599.607 197.739C602.897 199.486 605.493 201.928 607.395 205.064C609.349 208.2 610.326 211.773 610.326 215.783C610.326 219.844 609.349 223.442 607.395 226.578C605.493 229.714 602.897 232.182 599.607 233.981C596.368 235.729 592.719 236.603 588.657 236.603ZM588.657 224.728C590.302 224.728 591.742 224.342 592.976 223.571C594.261 222.8 595.238 221.746 595.906 220.409C596.574 219.021 596.908 217.479 596.908 215.783C596.908 214.035 596.574 212.493 595.906 211.156C595.238 209.819 594.261 208.766 592.976 207.994C591.742 207.223 590.302 206.838 588.657 206.838C587.012 206.838 585.573 207.223 584.339 207.994C583.105 208.766 582.129 209.819 581.409 211.156C580.741 212.493 580.406 214.035 580.406 215.783C580.406 217.479 580.741 219.021 581.409 220.409C582.129 221.746 583.105 222.8 584.339 223.571C585.573 224.342 587.012 224.728 588.657 224.728ZM616.647 235.677V212.852C616.647 209.46 617.47 206.427 619.115 203.753C620.811 201.029 623.176 198.895 626.209 197.353C629.293 195.811 632.892 195.04 637.004 195.04C641.117 195.04 644.664 195.811 647.646 197.353C650.628 198.895 652.915 201.029 654.509 203.753C656.102 206.427 656.899 209.46 656.899 212.852V235.677H643.482V213.469C643.482 212.287 643.199 211.207 642.634 210.231C642.068 209.203 641.271 208.38 640.243 207.763C639.266 207.146 638.11 206.838 636.773 206.838C635.488 206.838 634.306 207.146 633.226 207.763C632.198 208.38 631.401 209.203 630.836 210.231C630.27 211.207 629.987 212.287 629.987 213.469V235.677H616.647Z" fill="white"/>
</g>
<g filter="url(#filter19_d_698_9072)">
<path d="M233.327 357.49V275.023H282.453C286.773 275.023 290.661 275.966 294.117 277.851C297.651 279.657 300.478 282.21 302.599 285.508C304.719 288.807 305.78 292.695 305.78 297.171C305.78 299.606 305.308 301.962 304.366 304.24C303.423 306.439 302.167 308.442 300.596 310.248C299.025 311.976 297.14 313.468 294.941 314.725C297.533 315.903 299.771 317.513 301.656 319.555C303.62 321.597 305.112 323.914 306.133 326.506C307.233 329.098 307.782 331.847 307.782 334.753C307.782 339.308 306.683 343.313 304.484 346.769C302.363 350.146 299.496 352.777 295.884 354.662C292.271 356.547 288.265 357.49 283.867 357.49H233.327ZM255.828 339.701H278.448C279.94 339.701 281.197 339.386 282.218 338.758C283.317 338.051 284.181 337.109 284.81 335.931C285.438 334.753 285.752 333.457 285.752 332.043C285.752 330.629 285.438 329.373 284.81 328.273C284.181 327.173 283.317 326.31 282.218 325.681C281.197 324.974 279.94 324.621 278.448 324.621H255.828V339.701ZM255.828 307.421H275.974C277.309 307.421 278.487 307.107 279.508 306.478C280.608 305.771 281.432 304.868 281.982 303.769C282.61 302.669 282.925 301.491 282.925 300.234C282.925 298.978 282.61 297.839 281.982 296.818C281.432 295.718 280.647 294.854 279.626 294.226C278.605 293.598 277.388 293.284 275.974 293.284H255.828V307.421ZM348.636 359.021C342.352 359.021 336.855 357.804 332.142 355.369C327.508 352.934 323.896 349.675 321.304 345.591C318.791 341.507 317.534 336.873 317.534 331.69V296.818H337.915V330.747C337.915 332.475 338.347 334.124 339.211 335.695C340.075 337.266 341.292 338.522 342.863 339.465C344.512 340.407 346.319 340.879 348.282 340.879C350.324 340.879 352.091 340.407 353.584 339.465C355.154 338.522 356.372 337.266 357.236 335.695C358.1 334.124 358.532 332.475 358.532 330.747V296.818H379.03V331.69C379.03 336.873 377.813 341.507 375.378 345.591C372.944 349.675 369.449 352.934 364.893 355.369C360.338 357.804 354.919 359.021 348.636 359.021ZM421.806 359.021C416.701 359.021 412.107 358.236 408.022 356.665C404.017 355.016 400.561 352.738 397.655 349.832C394.749 346.848 392.511 343.392 390.94 339.465C389.448 335.459 388.702 331.022 388.702 326.152C388.702 320.026 389.958 314.686 392.472 310.13C394.985 305.497 398.401 301.884 402.721 299.292C407.119 296.7 412.107 295.404 417.683 295.404C419.96 295.404 422.081 295.679 424.045 296.229C426.087 296.7 427.932 297.486 429.582 298.585C431.309 299.606 432.762 300.902 433.941 302.473H434.412V271.489H454.911V326.035C454.911 332.711 453.536 338.522 450.787 343.47C448.038 348.34 444.19 352.149 439.242 354.898C434.294 357.647 428.482 359.021 421.806 359.021ZM421.806 341.232C424.319 341.232 426.479 340.643 428.286 339.465C430.092 338.208 431.506 336.52 432.527 334.399C433.548 332.279 434.058 329.883 434.058 327.213C434.058 324.621 433.548 322.304 432.527 320.262C431.506 318.22 430.092 316.61 428.286 315.432C426.479 314.175 424.319 313.547 421.806 313.547C419.371 313.547 417.212 314.175 415.327 315.432C413.52 316.61 412.107 318.22 411.086 320.262C410.065 322.304 409.554 324.621 409.554 327.213C409.554 329.883 410.065 332.279 411.086 334.399C412.107 336.52 413.52 338.208 415.327 339.465C417.212 340.643 419.371 341.232 421.806 341.232ZM475.598 381.405V363.969H505.168C506.503 363.969 507.564 363.577 508.349 362.791C509.134 362.084 509.527 361.142 509.527 359.964V347.947H509.056C507.799 349.518 506.346 350.932 504.697 352.188C503.048 353.366 501.123 354.309 498.924 355.016C496.804 355.644 494.29 355.958 491.385 355.958C486.044 355.958 481.331 354.702 477.247 352.188C473.163 349.597 469.943 346.102 467.587 341.703C465.309 337.305 464.171 332.357 464.171 326.859C464.171 321.204 465.427 315.982 467.94 311.191C470.454 306.4 474.145 302.591 479.015 299.763C483.884 296.857 489.814 295.404 496.804 295.404C503.48 295.404 509.292 296.779 514.24 299.528C519.188 302.276 523.036 306.125 525.785 311.073C528.612 315.942 530.026 321.676 530.026 328.273V363.145C530.026 368.799 528.377 373.237 525.078 376.457C521.779 379.756 517.146 381.405 511.176 381.405H475.598ZM497.157 339.347C499.513 339.347 501.595 338.797 503.401 337.698C505.207 336.52 506.621 334.988 507.642 333.103C508.663 331.218 509.174 329.137 509.174 326.859C509.174 324.346 508.663 322.108 507.642 320.144C506.621 318.181 505.207 316.61 503.401 315.432C501.595 314.254 499.513 313.665 497.157 313.665C494.801 313.665 492.68 314.254 490.795 315.432C488.989 316.531 487.575 318.063 486.554 320.026C485.533 321.99 485.023 324.189 485.023 326.624C485.023 328.98 485.533 331.14 486.554 333.103C487.575 334.988 488.989 336.52 490.795 337.698C492.68 338.797 494.801 339.347 497.157 339.347ZM574.286 357.49C567.453 357.49 561.406 356.272 556.144 353.838C550.96 351.403 546.837 347.908 543.774 343.353C540.789 338.797 539.297 333.417 539.297 327.213C539.297 320.301 540.75 314.489 543.656 309.777C546.562 305.065 550.41 301.491 555.201 299.056C559.992 296.622 565.137 295.404 570.634 295.404C576.603 295.404 581.748 296.661 586.067 299.174C590.466 301.609 593.843 305.065 596.199 309.541C598.634 314.018 599.851 319.241 599.851 325.21C599.851 326.467 599.772 327.92 599.615 329.569C599.537 331.14 599.341 332.475 599.026 333.574H560.503C560.974 335.302 561.72 336.755 562.741 337.933C563.841 339.033 565.254 339.858 566.982 340.407C568.789 340.957 570.831 341.232 573.108 341.232H593.136V357.49H574.286ZM559.796 321.676H580.53C580.53 320.498 580.373 319.437 580.059 318.495C579.745 317.474 579.313 316.531 578.763 315.667C578.213 314.804 577.546 314.057 576.76 313.429C575.975 312.801 575.033 312.33 573.933 312.015C572.833 311.701 571.655 311.544 570.399 311.544C568.749 311.544 567.296 311.819 566.04 312.369C564.783 312.919 563.723 313.665 562.859 314.607C561.995 315.471 561.288 316.531 560.738 317.788C560.267 318.966 559.953 320.262 559.796 321.676ZM632.973 357.49C627.24 357.49 622.724 355.88 619.425 352.66C616.205 349.361 614.595 344.884 614.595 339.229V282.327H634.976V337.698C634.976 338.562 635.29 339.308 635.918 339.936C636.546 340.486 637.293 340.761 638.157 340.761H651.351V357.49H632.973ZM605.052 312.84V296.818H651.351V312.84H605.052Z" fill="white"/>
</g>
<g filter="url(#filter20_d_698_9072)">
<path d="M260.912 461.156C255.986 461.101 251.579 460.362 247.693 458.939C243.806 457.516 240.494 455.518 237.757 452.945C235.02 450.372 232.913 447.361 231.435 443.913C230.012 440.409 229.3 436.578 229.3 432.417C229.3 428.257 230.012 424.453 231.435 421.004C232.913 417.501 235.02 414.463 237.757 411.89C240.494 409.317 243.806 407.319 247.693 405.896C251.579 404.418 255.986 403.679 260.912 403.679H269.698V416.406H261.405C258.832 416.406 256.533 416.817 254.508 417.638C252.537 418.459 250.867 419.608 249.499 421.086C248.13 422.51 247.09 424.206 246.379 426.177C245.667 428.093 245.311 430.173 245.311 432.417C245.311 434.662 245.667 436.769 246.379 438.74C247.09 440.656 248.13 442.353 249.499 443.831C250.867 445.254 252.537 446.376 254.508 447.197C256.533 448.018 258.832 448.429 261.405 448.429H269.698V461.156H260.912ZM297.687 462.141C293.417 462.141 289.531 461.211 286.027 459.349C282.579 457.433 279.814 454.806 277.734 451.467C275.654 448.128 274.614 444.296 274.614 439.972C274.614 435.702 275.654 431.897 277.734 428.558C279.814 425.219 282.606 422.619 286.109 420.758C289.613 418.842 293.499 417.884 297.769 417.884C302.039 417.884 305.898 418.842 309.346 420.758C312.85 422.619 315.614 425.219 317.64 428.558C319.72 431.897 320.76 435.702 320.76 439.972C320.76 444.296 319.72 448.128 317.64 451.467C315.614 454.806 312.85 457.433 309.346 459.349C305.898 461.211 302.011 462.141 297.687 462.141ZM297.687 449.496C299.439 449.496 300.971 449.086 302.285 448.265C303.654 447.443 304.694 446.321 305.405 444.898C306.117 443.42 306.473 441.778 306.473 439.972C306.473 438.11 306.117 436.468 305.405 435.045C304.694 433.622 303.654 432.5 302.285 431.678C300.971 430.857 299.439 430.447 297.687 430.447C295.935 430.447 294.403 430.857 293.089 431.678C291.775 432.5 290.735 433.622 289.969 435.045C289.257 436.468 288.901 438.11 288.901 439.972C288.901 441.778 289.257 443.42 289.969 444.898C290.735 446.321 291.775 447.443 293.089 448.265C294.403 449.086 295.935 449.496 297.687 449.496ZM327.491 461.156V436.851C327.491 433.239 328.367 430.009 330.118 427.162C331.925 424.261 334.443 421.99 337.672 420.347C340.957 418.705 344.789 417.884 349.168 417.884C353.547 417.884 357.324 418.705 360.499 420.347C363.674 421.99 366.11 424.261 367.807 427.162C369.503 430.009 370.352 433.239 370.352 436.851V461.156H356.065V437.508C356.065 436.249 355.764 435.1 355.162 434.06C354.56 432.965 353.711 432.089 352.616 431.432C351.576 430.775 350.345 430.447 348.921 430.447C347.553 430.447 346.294 430.775 345.144 431.432C344.05 432.089 343.201 432.965 342.599 434.06C341.997 435.1 341.696 436.249 341.696 437.508V461.156H327.491ZM394.91 461.156C390.914 461.156 387.767 460.034 385.468 457.789C383.223 455.49 382.101 452.37 382.101 448.429V408.77H396.306V447.361C396.306 447.963 396.525 448.484 396.963 448.921C397.401 449.305 397.921 449.496 398.523 449.496H407.719V461.156H394.91ZM375.45 430.036V418.869H407.719V430.036H375.45ZM414.566 461.156V431.596C414.566 427.655 415.688 424.562 417.932 422.318C420.232 420.019 423.406 418.869 427.457 418.869H440.43V430.036H431.809C430.933 430.036 430.222 430.31 429.674 430.857C429.127 431.405 428.853 432.116 428.853 432.992V461.156H414.566ZM467.198 462.141C462.929 462.141 459.042 461.211 455.539 459.349C452.09 457.433 449.326 454.806 447.246 451.467C445.165 448.128 444.125 444.296 444.125 439.972C444.125 435.702 445.165 431.897 447.246 428.558C449.326 425.219 452.117 422.619 455.621 420.758C459.124 418.842 463.011 417.884 467.28 417.884C471.55 417.884 475.409 418.842 478.858 420.758C482.361 422.619 485.125 425.219 487.151 428.558C489.231 431.897 490.271 435.702 490.271 439.972C490.271 444.296 489.231 448.128 487.151 451.467C485.125 454.806 482.361 457.433 478.858 459.349C475.409 461.211 471.523 462.141 467.198 462.141ZM467.198 449.496C468.95 449.496 470.483 449.086 471.796 448.265C473.165 447.443 474.205 446.321 474.917 444.898C475.628 443.42 475.984 441.778 475.984 439.972C475.984 438.11 475.628 436.468 474.917 435.045C474.205 433.622 473.165 432.5 471.796 431.678C470.483 430.857 468.95 430.447 467.198 430.447C465.447 430.447 463.914 430.857 462.6 431.678C461.286 432.5 460.246 433.622 459.48 435.045C458.768 436.468 458.412 438.11 458.412 439.972C458.412 441.778 458.768 443.42 459.48 444.898C460.246 446.321 461.286 447.443 462.6 448.265C463.914 449.086 465.447 449.496 467.198 449.496ZM497.002 461.156V401.216H511.207V461.156H497.002ZM519.534 461.156V401.216H533.739V461.156H519.534ZM542.066 461.156V418.869H556.353V461.156H542.066ZM549.21 414.271C547.02 414.271 545.131 413.477 543.544 411.89C542.011 410.303 541.245 408.441 541.245 406.307C541.245 404.117 542.011 402.256 543.544 400.723C545.131 399.136 547.02 398.342 549.21 398.342C551.399 398.342 553.26 399.136 554.793 400.723C556.38 402.256 557.174 404.117 557.174 406.307C557.174 408.441 556.38 410.303 554.793 411.89C553.26 413.477 551.399 414.271 549.21 414.271ZM564.598 461.156V436.851C564.598 433.239 565.474 430.009 567.226 427.162C569.032 424.261 571.55 421.99 574.78 420.347C578.064 418.705 581.896 417.884 586.275 417.884C590.654 417.884 594.431 418.705 597.606 420.347C600.781 421.99 603.217 424.261 604.914 427.162C606.611 430.009 607.459 433.239 607.459 436.851V461.156H593.172V437.508C593.172 436.249 592.871 435.1 592.269 434.06C591.667 432.965 590.818 432.089 589.724 431.432C588.684 430.775 587.452 430.447 586.029 430.447C584.66 430.447 583.401 430.775 582.252 431.432C581.157 432.089 580.308 432.965 579.706 434.06C579.104 435.1 578.803 436.249 578.803 437.508V461.156H564.598ZM622.082 477.824V465.672H642.692C643.622 465.672 644.361 465.398 644.909 464.851C645.456 464.358 645.73 463.701 645.73 462.88V454.505H645.402C644.526 455.6 643.513 456.585 642.363 457.461C641.214 458.282 639.873 458.939 638.34 459.431C636.862 459.869 635.11 460.088 633.085 460.088C629.363 460.088 626.078 459.213 623.232 457.461C620.385 455.654 618.141 453.219 616.499 450.153C614.912 447.088 614.118 443.639 614.118 439.807C614.118 435.866 614.994 432.226 616.745 428.887C618.497 425.548 621.07 422.893 624.464 420.922C627.857 418.897 631.99 417.884 636.862 417.884C641.515 417.884 645.566 418.842 649.014 420.758C652.463 422.674 655.145 425.356 657.061 428.805C659.032 432.198 660.017 436.194 660.017 440.793V465.097C660.017 469.038 658.867 472.131 656.568 474.375C654.269 476.674 651.04 477.824 646.88 477.824H622.082ZM637.108 448.511C638.751 448.511 640.201 448.128 641.46 447.361C642.719 446.54 643.705 445.473 644.416 444.159C645.128 442.845 645.484 441.395 645.484 439.807C645.484 438.056 645.128 436.496 644.416 435.127C643.705 433.759 642.719 432.664 641.46 431.843C640.201 431.022 638.751 430.611 637.108 430.611C635.466 430.611 633.988 431.022 632.675 431.843C631.416 432.609 630.43 433.676 629.719 435.045C629.007 436.413 628.651 437.946 628.651 439.643C628.651 441.285 629.007 442.791 629.719 444.159C630.43 445.473 631.416 446.54 632.675 447.361C633.988 448.128 635.466 448.511 637.108 448.511Z" fill="white"/>
</g>
<defs>
<filter id="filter0_i_698_9072" x="253.681" y="545.675" width="328.595" height="405.908" filterUnits="userSpaceOnUse" color-interpolation-filters="sRGB">
<feFlood flood-opacity="0" result="BackgroundImageFix"/>
<feBlend mode="normal" in="SourceGraphic" in2="BackgroundImageFix" result="shape"/>
<feColorMatrix in="SourceAlpha" type="matrix" values="0 0 0 0 0 0 0 0 0 0 0 0 0 0 0 0 0 0 127 0" result="hardAlpha"/>
<feOffset dx="2.734" dy="5.46799"/>
<feGaussianBlur stdDeviation="1.367"/>
<feComposite in2="hardAlpha" operator="arithmetic" k2="-1" k3="1"/>
<feColorMatrix type="matrix" values="0 0 0 0 0.645584 0 0 0 0 0.367743 0 0 0 0 0.991667 0 0 0 1 0"/>
<feBlend mode="normal" in2="shape" result="effect1_innerShadow_698_9072"/>
</filter>
<filter id="filter1_dii_698_9072" x="332.353" y="517.113" width="111.572" height="86.3584" filterUnits="userSpaceOnUse" color-interpolation-filters="sRGB">
<feFlood flood-opacity="0" result="BackgroundImageFix"/>
<feColorMatrix in="SourceAlpha" type="matrix" values="0 0 0 0 0 0 0 0 0 0 0 0 0 0 0 0 0 0 127 0" result="hardAlpha"/>
<feOffset dy="8.20199"/>
<feGaussianBlur stdDeviation="4.10099"/>
<feComposite in2="hardAlpha" operator="out"/>
<feColorMatrix type="matrix" values="0 0 0 0 0 0 0 0 0 0 0 0 0 0 0 0 0 0 0.25 0"/>
<feBlend mode="normal" in2="BackgroundImageFix" result="effect1_dropShadow_698_9072"/>
<feBlend mode="normal" in="SourceGraphic" in2="effect1_dropShadow_698_9072" result="shape"/>
<feColorMatrix in="SourceAlpha" type="matrix" values="0 0 0 0 0 0 0 0 0 0 0 0 0 0 0 0 0 0 127 0" result="hardAlpha"/>
<feOffset dx="5.46799" dy="-5.46799"/>
<feGaussianBlur stdDeviation="1.367"/>
<feComposite in2="hardAlpha" operator="arithmetic" k2="-1" k3="1"/>
<feColorMatrix type="matrix" values="0 0 0 0 0.0741112 0 0 0 0 0 0 0 0 0 0.241667 0 0 0 1 0"/>
<feBlend mode="normal" in2="shape" result="effect2_innerShadow_698_9072"/>
<feColorMatrix in="SourceAlpha" type="matrix" values="0 0 0 0 0 0 0 0 0 0 0 0 0 0 0 0 0 0 127 0" result="hardAlpha"/>
<feOffset dx="-2.734" dy="5.46799"/>
<feGaussianBlur stdDeviation="1.367"/>
<feComposite in2="hardAlpha" operator="arithmetic" k2="-1" k3="1"/>
<feColorMatrix type="matrix" values="0 0 0 0 0.311785 0 0 0 0 0.0884722 0 0 0 0 0.816667 0 0 0 1 0"/>
<feBlend mode="normal" in2="effect2_innerShadow_698_9072" result="effect3_innerShadow_698_9072"/>
</filter>
<filter id="filter2_ii_698_9072" x="309.572" y="680.642" width="42.6993" height="45.5215" filterUnits="userSpaceOnUse" color-interpolation-filters="sRGB">
<feFlood flood-opacity="0" result="BackgroundImageFix"/>
<feBlend mode="normal" in="SourceGraphic" in2="BackgroundImageFix" result="shape"/>
<feColorMatrix in="SourceAlpha" type="matrix" values="0 0 0 0 0 0 0 0 0 0 0 0 0 0 0 0 0 0 127 0" result="hardAlpha"/>
<feOffset dx="-1.4112" dy="2.82239"/>
<feGaussianBlur stdDeviation="1.4112"/>
<feComposite in2="hardAlpha" operator="arithmetic" k2="-1" k3="1"/>
<feColorMatrix type="matrix" values="0 0 0 0 1 0 0 0 0 0.657812 0 0 0 0 0.391667 0 0 0 1 0"/>
<feBlend mode="normal" in2="shape" result="effect1_innerShadow_698_9072"/>
<feColorMatrix in="SourceAlpha" type="matrix" values="0 0 0 0 0 0 0 0 0 0 0 0 0 0 0 0 0 0 127 0" result="hardAlpha"/>
<feOffset dx="1.4112" dy="-2.82239"/>
<feGaussianBlur stdDeviation="1.4112"/>
<feComposite in2="hardAlpha" operator="arithmetic" k2="-1" k3="1"/>
<feColorMatrix type="matrix" values="0 0 0 0 0.8875 0 0 0 0 0.388281 0 0 0 0 0 0 0 0 1 0"/>
<feBlend mode="normal" in2="effect1_innerShadow_698_9072" result="effect2_innerShadow_698_9072"/>
</filter>
<filter id="filter3_ii_698_9072" x="325.852" y="754.6" width="42.6993" height="45.5215" filterUnits="userSpaceOnUse" color-interpolation-filters="sRGB">
<feFlood flood-opacity="0" result="BackgroundImageFix"/>
<feBlend mode="normal" in="SourceGraphic" in2="BackgroundImageFix" result="shape"/>
<feColorMatrix in="SourceAlpha" type="matrix" values="0 0 0 0 0 0 0 0 0 0 0 0 0 0 0 0 0 0 127 0" result="hardAlpha"/>
<feOffset dx="-1.4112" dy="2.82239"/>
<feGaussianBlur stdDeviation="1.4112"/>
<feComposite in2="hardAlpha" operator="arithmetic" k2="-1" k3="1"/>
<feColorMatrix type="matrix" values="0 0 0 0 1 0 0 0 0 0.657812 0 0 0 0 0.391667 0 0 0 1 0"/>
<feBlend mode="normal" in2="shape" result="effect1_innerShadow_698_9072"/>
<feColorMatrix in="SourceAlpha" type="matrix" values="0 0 0 0 0 0 0 0 0 0 0 0 0 0 0 0 0 0 127 0" result="hardAlpha"/>
<feOffset dx="1.4112" dy="-2.82239"/>
<feGaussianBlur stdDeviation="1.4112"/>
<feComposite in2="hardAlpha" operator="arithmetic" k2="-1" k3="1"/>
<feColorMatrix type="matrix" values="0 0 0 0 0.8875 0 0 0 0 0.388281 0 0 0 0 0 0 0 0 1 0"/>
<feBlend mode="normal" in2="effect1_innerShadow_698_9072" result="effect2_innerShadow_698_9072"/>
</filter>
<filter id="filter4_ii_698_9072" x="342.902" y="823.888" width="42.6984" height="45.5203" filterUnits="userSpaceOnUse" color-interpolation-filters="sRGB">
<feFlood flood-opacity="0" result="BackgroundImageFix"/>
<feBlend mode="normal" in="SourceGraphic" in2="BackgroundImageFix" result="shape"/>
<feColorMatrix in="SourceAlpha" type="matrix" values="0 0 0 0 0 0 0 0 0 0 0 0 0 0 0 0 0 0 127 0" result="hardAlpha"/>
<feOffset dx="-1.4112" dy="2.82239"/>
<feGaussianBlur stdDeviation="1.4112"/>
<feComposite in2="hardAlpha" operator="arithmetic" k2="-1" k3="1"/>
<feColorMatrix type="matrix" values="0 0 0 0 1 0 0 0 0 0.657812 0 0 0 0 0.391667 0 0 0 1 0"/>
<feBlend mode="normal" in2="shape" result="effect1_innerShadow_698_9072"/>
<feColorMatrix in="SourceAlpha" type="matrix" values="0 0 0 0 0 0 0 0 0 0 0 0 0 0 0 0 0 0 127 0" result="hardAlpha"/>
<feOffset dx="1.4112" dy="-2.82239"/>
<feGaussianBlur stdDeviation="1.4112"/>
<feComposite in2="hardAlpha" operator="arithmetic" k2="-1" k3="1"/>
<feColorMatrix type="matrix" values="0 0 0 0 0.8875 0 0 0 0 0.388281 0 0 0 0 0 0 0 0 1 0"/>
<feBlend mode="normal" in2="effect1_innerShadow_698_9072" result="effect2_innerShadow_698_9072"/>
</filter>
<filter id="filter5_ii_698_9072" x="405.586" y="706.442" width="234.145" height="276.706" filterUnits="userSpaceOnUse" color-interpolation-filters="sRGB">
<feFlood flood-opacity="0" result="BackgroundImageFix"/>
<feBlend mode="normal" in="SourceGraphic" in2="BackgroundImageFix" result="shape"/>
<feColorMatrix in="SourceAlpha" type="matrix" values="0 0 0 0 0 0 0 0 0 0 0 0 0 0 0 0 0 0 127 0" result="hardAlpha"/>
<feOffset dx="-13.67" dy="-13.67"/>
<feGaussianBlur stdDeviation="1.367"/>
<feComposite in2="hardAlpha" operator="arithmetic" k2="-1" k3="1"/>
<feColorMatrix type="matrix" values="0 0 0 0 0 0 0 0 0 0 0 0 0 0 0 0 0 0 0.25 0"/>
<feBlend mode="normal" in2="shape" result="effect1_innerShadow_698_9072"/>
<feColorMatrix in="SourceAlpha" type="matrix" values="0 0 0 0 0 0 0 0 0 0 0 0 0 0 0 0 0 0 127 0" result="hardAlpha"/>
<feOffset dx="2.734" dy="5.46799"/>
<feGaussianBlur stdDeviation="4.10099"/>
<feComposite in2="hardAlpha" operator="arithmetic" k2="-1" k3="1"/>
<feColorMatrix type="matrix" values="0 0 0 0 0.374384 0 0 0 0 0.184288 0 0 0 0 0.804167 0 0 0 1 0"/>
<feBlend mode="normal" in2="effect1_innerShadow_698_9072" result="effect2_innerShadow_698_9072"/>
</filter>
<filter id="filter6_i_698_9072" x="474.367" y="731.36" width="135.524" height="74.1931" filterUnits="userSpaceOnUse" color-interpolation-filters="sRGB">
<feFlood flood-opacity="0" result="BackgroundImageFix"/>
<feBlend mode="normal" in="SourceGraphic" in2="BackgroundImageFix" result="shape"/>
<feColorMatrix in="SourceAlpha" type="matrix" values="0 0 0 0 0 0 0 0 0 0 0 0 0 0 0 0 0 0 127 0" result="hardAlpha"/>
<feOffset dx="2.734"/>
<feComposite in2="hardAlpha" operator="arithmetic" k2="-1" k3="1"/>
<feColorMatrix type="matrix" values="0 0 0 0 0.119333 0 0 0 0 0.00624999 0 0 0 0 0.375 0 0 0 1 0"/>
<feBlend mode="normal" in2="shape" result="effect1_innerShadow_698_9072"/>
</filter>
<filter id="filter7_di_698_9072" x="450.214" y="770.228" width="67.2733" height="64.5274" filterUnits="userSpaceOnUse" color-interpolation-filters="sRGB">
<feFlood flood-opacity="0" result="BackgroundImageFix"/>
<feColorMatrix in="SourceAlpha" type="matrix" values="0 0 0 0 0 0 0 0 0 0 0 0 0 0 0 0 0 0 127 0" result="hardAlpha"/>
<feOffset dy="10.936"/>
<feGaussianBlur stdDeviation="5.46799"/>
<feComposite in2="hardAlpha" operator="out"/>
<feColorMatrix type="matrix" values="0 0 0 0 0 0 0 0 0 0 0 0 0 0 0 0 0 0 0.25 0"/>
<feBlend mode="normal" in2="BackgroundImageFix" result="effect1_dropShadow_698_9072"/>
<feBlend mode="normal" in="SourceGraphic" in2="effect1_dropShadow_698_9072" result="shape"/>
<feColorMatrix in="SourceAlpha" type="matrix" values="0 0 0 0 0 0 0 0 0 0 0 0 0 0 0 0 0 0 127 0" result="hardAlpha"/>
<feOffset dx="-2.734" dy="-2.734"/>
<feGaussianBlur stdDeviation="1.367"/>
<feComposite in2="hardAlpha" operator="arithmetic" k2="-1" k3="1"/>
<feColorMatrix type="matrix" values="0 0 0 0 0.186287 0 0 0 0 0.0512153 0 0 0 0 0.491667 0 0 0 0.5 0"/>
<feBlend mode="normal" in2="shape" result="effect2_innerShadow_698_9072"/>
</filter>
<filter id="filter8_di_698_9072" x="495.088" y="785.405" width="67.2733" height="64.5274" filterUnits="userSpaceOnUse" color-interpolation-filters="sRGB">
<feFlood flood-opacity="0" result="BackgroundImageFix"/>
<feColorMatrix in="SourceAlpha" type="matrix" values="0 0 0 0 0 0 0 0 0 0 0 0 0 0 0 0 0 0 127 0" result="hardAlpha"/>
<feOffset dy="10.936"/>
<feGaussianBlur stdDeviation="5.46799"/>
<feComposite in2="hardAlpha" operator="out"/>
<feColorMatrix type="matrix" values="0 0 0 0 0 0 0 0 0 0 0 0 0 0 0 0 0 0 0.25 0"/>
<feBlend mode="normal" in2="BackgroundImageFix" result="effect1_dropShadow_698_9072"/>
<feBlend mode="normal" in="SourceGraphic" in2="effect1_dropShadow_698_9072" result="shape"/>
<feColorMatrix in="SourceAlpha" type="matrix" values="0 0 0 0 0 0 0 0 0 0 0 0 0 0 0 0 0 0 127 0" result="hardAlpha"/>
<feOffset dx="-2.734" dy="-2.734"/>
<feGaussianBlur stdDeviation="1.367"/>
<feComposite in2="hardAlpha" operator="arithmetic" k2="-1" k3="1"/>
<feColorMatrix type="matrix" values="0 0 0 0 0.186287 0 0 0 0 0.0512153 0 0 0 0 0.491667 0 0 0 0.5 0"/>
<feBlend mode="normal" in2="shape" result="effect2_innerShadow_698_9072"/>
</filter>
<filter id="filter9_di_698_9072" x="539.975" y="800.571" width="67.2733" height="64.5274" filterUnits="userSpaceOnUse" color-interpolation-filters="sRGB">
<feFlood flood-opacity="0" result="BackgroundImageFix"/>
<feColorMatrix in="SourceAlpha" type="matrix" values="0 0 0 0 0 0 0 0 0 0 0 0 0 0 0 0 0 0 127 0" result="hardAlpha"/>
<feOffset dy="10.936"/>
<feGaussianBlur stdDeviation="5.46799"/>
<feComposite in2="hardAlpha" operator="out"/>
<feColorMatrix type="matrix" values="0 0 0 0 0 0 0 0 0 0 0 0 0 0 0 0 0 0 0.25 0"/>
<feBlend mode="normal" in2="BackgroundImageFix" result="effect1_dropShadow_698_9072"/>
<feBlend mode="normal" in="SourceGraphic" in2="effect1_dropShadow_698_9072" result="shape"/>
<feColorMatrix in="SourceAlpha" type="matrix" values="0 0 0 0 0 0 0 0 0 0 0 0 0 0 0 0 0 0 127 0" result="hardAlpha"/>
<feOffset dx="-2.734" dy="-2.734"/>
<feGaussianBlur stdDeviation="1.367"/>
<feComposite in2="hardAlpha" operator="arithmetic" k2="-1" k3="1"/>
<feColorMatrix type="matrix" values="0 0 0 0 0.186287 0 0 0 0 0.0512153 0 0 0 0 0.491667 0 0 0 0.5 0"/>
<feBlend mode="normal" in2="shape" result="effect2_innerShadow_698_9072"/>
</filter>
<filter id="filter10_di_698_9072" x="437.728" y="807.171" width="67.2733" height="64.5274" filterUnits="userSpaceOnUse" color-interpolation-filters="sRGB">
<feFlood flood-opacity="0" result="BackgroundImageFix"/>
<feColorMatrix in="SourceAlpha" type="matrix" values="0 0 0 0 0 0 0 0 0 0 0 0 0 0 0 0 0 0 127 0" result="hardAlpha"/>
<feOffset dy="10.936"/>
<feGaussianBlur stdDeviation="5.46799"/>
<feComposite in2="hardAlpha" operator="out"/>
<feColorMatrix type="matrix" values="0 0 0 0 0 0 0 0 0 0 0 0 0 0 0 0 0 0 0.25 0"/>
<feBlend mode="normal" in2="BackgroundImageFix" result="effect1_dropShadow_698_9072"/>
<feBlend mode="normal" in="SourceGraphic" in2="effect1_dropShadow_698_9072" result="shape"/>
<feColorMatrix in="SourceAlpha" type="matrix" values="0 0 0 0 0 0 0 0 0 0 0 0 0 0 0 0 0 0 127 0" result="hardAlpha"/>
<feOffset dx="-2.734" dy="-2.734"/>
<feGaussianBlur stdDeviation="1.367"/>
<feComposite in2="hardAlpha" operator="arithmetic" k2="-1" k3="1"/>
<feColorMatrix type="matrix" values="0 0 0 0 0.186287 0 0 0 0 0.0512153 0 0 0 0 0.491667 0 0 0 0.5 0"/>
<feBlend mode="normal" in2="shape" result="effect2_innerShadow_698_9072"/>
</filter>
<filter id="filter11_di_698_9072" x="425.243" y="844.099" width="67.2733" height="64.5274" filterUnits="userSpaceOnUse" color-interpolation-filters="sRGB">
<feFlood flood-opacity="0" result="BackgroundImageFix"/>
<feColorMatrix in="SourceAlpha" type="matrix" values="0 0 0 0 0 0 0 0 0 0 0 0 0 0 0 0 0 0 127 0" result="hardAlpha"/>
<feOffset dy="10.936"/>
<feGaussianBlur stdDeviation="5.46799"/>
<feComposite in2="hardAlpha" operator="out"/>
<feColorMatrix type="matrix" values="0 0 0 0 0 0 0 0 0 0 0 0 0 0 0 0 0 0 0.25 0"/>
<feBlend mode="normal" in2="BackgroundImageFix" result="effect1_dropShadow_698_9072"/>
<feBlend mode="normal" in="SourceGraphic" in2="effect1_dropShadow_698_9072" result="shape"/>
<feColorMatrix in="SourceAlpha" type="matrix" values="0 0 0 0 0 0 0 0 0 0 0 0 0 0 0 0 0 0 127 0" result="hardAlpha"/>
<feOffset dx="-2.734" dy="-2.734"/>
<feGaussianBlur stdDeviation="1.367"/>
<feComposite in2="hardAlpha" operator="arithmetic" k2="-1" k3="1"/>
<feColorMatrix type="matrix" values="0 0 0 0 0.186287 0 0 0 0 0.0512153 0 0 0 0 0.491667 0 0 0 0.5 0"/>
<feBlend mode="normal" in2="shape" result="effect2_innerShadow_698_9072"/>
</filter>
<filter id="filter12_di_698_9072" x="412.749" y="881.042" width="67.2733" height="64.5274" filterUnits="userSpaceOnUse" color-interpolation-filters="sRGB">
<feFlood flood-opacity="0" result="BackgroundImageFix"/>
<feColorMatrix in="SourceAlpha" type="matrix" values="0 0 0 0 0 0 0 0 0 0 0 0 0 0 0 0 0 0 127 0" result="hardAlpha"/>
<feOffset dy="10.936"/>
<feGaussianBlur stdDeviation="5.46799"/>
<feComposite in2="hardAlpha" operator="out"/>
<feColorMatrix type="matrix" values="0 0 0 0 0 0 0 0 0 0 0 0 0 0 0 0 0 0 0.25 0"/>
<feBlend mode="normal" in2="BackgroundImageFix" result="effect1_dropShadow_698_9072"/>
<feBlend mode="normal" in="SourceGraphic" in2="effect1_dropShadow_698_9072" result="shape"/>
<feColorMatrix in="SourceAlpha" type="matrix" values="0 0 0 0 0 0 0 0 0 0 0 0 0 0 0 0 0 0 127 0" result="hardAlpha"/>
<feOffset dx="-2.734" dy="-2.734"/>
<feGaussianBlur stdDeviation="1.367"/>
<feComposite in2="hardAlpha" operator="arithmetic" k2="-1" k3="1"/>
<feColorMatrix type="matrix" values="0 0 0 0 0.186287 0 0 0 0 0.0512153 0 0 0 0 0.491667 0 0 0 0.5 0"/>
<feBlend mode="normal" in2="shape" result="effect2_innerShadow_698_9072"/>
</filter>
<filter id="filter13_di_698_9072" x="482.605" y="822.335" width="67.2733" height="64.5274" filterUnits="userSpaceOnUse" color-interpolation-filters="sRGB">
<feFlood flood-opacity="0" result="BackgroundImageFix"/>
<feColorMatrix in="SourceAlpha" type="matrix" values="0 0 0 0 0 0 0 0 0 0 0 0 0 0 0 0 0 0 127 0" result="hardAlpha"/>
<feOffset dy="10.936"/>
<feGaussianBlur stdDeviation="5.46799"/>
<feComposite in2="hardAlpha" operator="out"/>
<feColorMatrix type="matrix" values="0 0 0 0 0 0 0 0 0 0 0 0 0 0 0 0 0 0 0.25 0"/>
<feBlend mode="normal" in2="BackgroundImageFix" result="effect1_dropShadow_698_9072"/>
<feBlend mode="normal" in="SourceGraphic" in2="effect1_dropShadow_698_9072" result="shape"/>
<feColorMatrix in="SourceAlpha" type="matrix" values="0 0 0 0 0 0 0 0 0 0 0 0 0 0 0 0 0 0 127 0" result="hardAlpha"/>
<feOffset dx="-2.734" dy="-2.734"/>
<feGaussianBlur stdDeviation="1.367"/>
<feComposite in2="hardAlpha" operator="arithmetic" k2="-1" k3="1"/>
<feColorMatrix type="matrix" values="0 0 0 0 0.186287 0 0 0 0 0.0512153 0 0 0 0 0.491667 0 0 0 0.5 0"/>
<feBlend mode="normal" in2="shape" result="effect2_innerShadow_698_9072"/>
</filter>
<filter id="filter14_di_698_9072" x="470.119" y="859.276" width="67.2733" height="64.5274" filterUnits="userSpaceOnUse" color-interpolation-filters="sRGB">
<feFlood flood-opacity="0" result="BackgroundImageFix"/>
<feColorMatrix in="SourceAlpha" type="matrix" values="0 0 0 0 0 0 0 0 0 0 0 0 0 0 0 0 0 0 127 0" result="hardAlpha"/>
<feOffset dy="10.936"/>
<feGaussianBlur stdDeviation="5.46799"/>
<feComposite in2="hardAlpha" operator="out"/>
<feColorMatrix type="matrix" values="0 0 0 0 0 0 0 0 0 0 0 0 0 0 0 0 0 0 0.25 0"/>
<feBlend mode="normal" in2="BackgroundImageFix" result="effect1_dropShadow_698_9072"/>
<feBlend mode="normal" in="SourceGraphic" in2="effect1_dropShadow_698_9072" result="shape"/>
<feColorMatrix in="SourceAlpha" type="matrix" values="0 0 0 0 0 0 0 0 0 0 0 0 0 0 0 0 0 0 127 0" result="hardAlpha"/>
<feOffset dx="-2.734" dy="-2.734"/>
<feGaussianBlur stdDeviation="1.367"/>
<feComposite in2="hardAlpha" operator="arithmetic" k2="-1" k3="1"/>
<feColorMatrix type="matrix" values="0 0 0 0 0.186287 0 0 0 0 0.0512153 0 0 0 0 0.491667 0 0 0 0.5 0"/>
<feBlend mode="normal" in2="shape" result="effect2_innerShadow_698_9072"/>
</filter>
<filter id="filter15_di_698_9072" x="457.633" y="896.216" width="67.2733" height="64.5274" filterUnits="userSpaceOnUse" color-interpolation-filters="sRGB">
<feFlood flood-opacity="0" result="BackgroundImageFix"/>
<feColorMatrix in="SourceAlpha" type="matrix" values="0 0 0 0 0 0 0 0 0 0 0 0 0 0 0 0 0 0 127 0" result="hardAlpha"/>
<feOffset dy="10.936"/>
<feGaussianBlur stdDeviation="5.46799"/>
<feComposite in2="hardAlpha" operator="out"/>
<feColorMatrix type="matrix" values="0 0 0 0 0 0 0 0 0 0 0 0 0 0 0 0 0 0 0.25 0"/>
<feBlend mode="normal" in2="BackgroundImageFix" result="effect1_dropShadow_698_9072"/>
<feBlend mode="normal" in="SourceGraphic" in2="effect1_dropShadow_698_9072" result="shape"/>
<feColorMatrix in="SourceAlpha" type="matrix" values="0 0 0 0 0 0 0 0 0 0 0 0 0 0 0 0 0 0 127 0" result="hardAlpha"/>
<feOffset dx="-2.734" dy="-2.734"/>
<feGaussianBlur stdDeviation="1.367"/>
<feComposite in2="hardAlpha" operator="arithmetic" k2="-1" k3="1"/>
<feColorMatrix type="matrix" values="0 0 0 0 0.186287 0 0 0 0 0.0512153 0 0 0 0 0.491667 0 0 0 0.5 0"/>
<feBlend mode="normal" in2="shape" result="effect2_innerShadow_698_9072"/>
</filter>
<filter id="filter16_di_698_9072" x="527.489" y="837.509" width="67.2733" height="64.5274" filterUnits="userSpaceOnUse" color-interpolation-filters="sRGB">
<feFlood flood-opacity="0" result="BackgroundImageFix"/>
<feColorMatrix in="SourceAlpha" type="matrix" values="0 0 0 0 0 0 0 0 0 0 0 0 0 0 0 0 0 0 127 0" result="hardAlpha"/>
<feOffset dy="10.936"/>
<feGaussianBlur stdDeviation="5.46799"/>
<feComposite in2="hardAlpha" operator="out"/>
<feColorMatrix type="matrix" values="0 0 0 0 0 0 0 0 0 0 0 0 0 0 0 0 0 0 0.25 0"/>
<feBlend mode="normal" in2="BackgroundImageFix" result="effect1_dropShadow_698_9072"/>
<feBlend mode="normal" in="SourceGraphic" in2="effect1_dropShadow_698_9072" result="shape"/>
<feColorMatrix in="SourceAlpha" type="matrix" values="0 0 0 0 0 0 0 0 0 0 0 0 0 0 0 0 0 0 127 0" result="hardAlpha"/>
<feOffset dx="-2.734" dy="-2.734"/>
<feGaussianBlur stdDeviation="1.367"/>
<feComposite in2="hardAlpha" operator="arithmetic" k2="-1" k3="1"/>
<feColorMatrix type="matrix" values="0 0 0 0 0.186287 0 0 0 0 0.0512153 0 0 0 0 0.491667 0 0 0 0.5 0"/>
<feBlend mode="normal" in2="shape" result="effect2_innerShadow_698_9072"/>
</filter>
<filter id="filter17_di_698_9072" x="502.509" y="874.453" width="79.7597" height="101.466" filterUnits="userSpaceOnUse" color-interpolation-filters="sRGB">
<feFlood flood-opacity="0" result="BackgroundImageFix"/>
<feColorMatrix in="SourceAlpha" type="matrix" values="0 0 0 0 0 0 0 0 0 0 0 0 0 0 0 0 0 0 127 0" result="hardAlpha"/>
<feOffset dy="10.936"/>
<feGaussianBlur stdDeviation="5.46799"/>
<feComposite in2="hardAlpha" operator="out"/>
<feColorMatrix type="matrix" values="0 0 0 0 0 0 0 0 0 0 0 0 0 0 0 0 0 0 0.25 0"/>
<feBlend mode="normal" in2="BackgroundImageFix" result="effect1_dropShadow_698_9072"/>
<feBlend mode="normal" in="SourceGraphic" in2="effect1_dropShadow_698_9072" result="shape"/>
<feColorMatrix in="SourceAlpha" type="matrix" values="0 0 0 0 0 0 0 0 0 0 0 0 0 0 0 0 0 0 127 0" result="hardAlpha"/>
<feOffset dx="-2.734" dy="-2.734"/>
<feGaussianBlur stdDeviation="1.367"/>
<feComposite in2="hardAlpha" operator="arithmetic" k2="-1" k3="1"/>
<feColorMatrix type="matrix" values="0 0 0 0 0.186287 0 0 0 0 0.0512153 0 0 0 0 0.491667 0 0 0 0.5 0"/>
<feBlend mode="normal" in2="shape" result="effect2_innerShadow_698_9072"/>
</filter>
<filter id="filter18_d_698_9072" x="223.349" y="176.687" width="437.284" height="83.0366" filterUnits="userSpaceOnUse" color-interpolation-filters="sRGB">
<feFlood flood-opacity="0" result="BackgroundImageFix"/>
<feColorMatrix in="SourceAlpha" type="matrix" values="0 0 0 0 0 0 0 0 0 0 0 0 0 0 0 0 0 0 127 0" result="hardAlpha"/>
<feOffset dy="3.73363"/>
<feGaussianBlur stdDeviation="1.86682"/>
<feComposite in2="hardAlpha" operator="out"/>
<feColorMatrix type="matrix" values="0 0 0 0 0 0 0 0 0 0 0 0 0 0 0 0 0 0 0.25 0"/>
<feBlend mode="normal" in2="BackgroundImageFix" result="effect1_dropShadow_698_9072"/>
<feBlend mode="normal" in="SourceGraphic" in2="effect1_dropShadow_698_9072" result="shape"/>
</filter>
<filter id="filter19_d_698_9072" x="229.594" y="271.489" width="425.492" height="117.383" filterUnits="userSpaceOnUse" color-interpolation-filters="sRGB">
<feFlood flood-opacity="0" result="BackgroundImageFix"/>
<feColorMatrix in="SourceAlpha" type="matrix" values="0 0 0 0 0 0 0 0 0 0 0 0 0 0 0 0 0 0 127 0" result="hardAlpha"/>
<feOffset dy="3.73363"/>
<feGaussianBlur stdDeviation="1.86682"/>
<feComposite in2="hardAlpha" operator="out"/>
<feColorMatrix type="matrix" values="0 0 0 0 0 0 0 0 0 0 0 0 0 0 0 0 0 0 0.25 0"/>
<feBlend mode="normal" in2="BackgroundImageFix" result="effect1_dropShadow_698_9072"/>
<feBlend mode="normal" in="SourceGraphic" in2="effect1_dropShadow_698_9072" result="shape"/>
</filter>
<filter id="filter20_d_698_9072" x="225.566" y="398.342" width="438.184" height="86.9492" filterUnits="userSpaceOnUse" color-interpolation-filters="sRGB">
<feFlood flood-opacity="0" result="BackgroundImageFix"/>
<feColorMatrix in="SourceAlpha" type="matrix" values="0 0 0 0 0 0 0 0 0 0 0 0 0 0 0 0 0 0 127 0" result="hardAlpha"/>
<feOffset dy="3.73363"/>
<feGaussianBlur stdDeviation="1.86682"/>
<feComposite in2="hardAlpha" operator="out"/>
<feColorMatrix type="matrix" values="0 0 0 0 0 0 0 0 0 0 0 0 0 0 0 0 0 0 0.25 0"/>
<feBlend mode="normal" in2="BackgroundImageFix" result="effect1_dropShadow_698_9072"/>
<feBlend mode="normal" in="SourceGraphic" in2="effect1_dropShadow_698_9072" result="shape"/>
</filter>
<linearGradient id="paint0_linear_698_9072" x1="0" y1="512" x2="1011" y2="512" gradientUnits="userSpaceOnUse">
<stop stop-color="#02AAB0"/>
<stop offset="1" stop-color="#00CDAC"/>
</linearGradient>
<linearGradient id="paint1_linear_698_9072" x1="127.978" y1="1302.18" x2="674.784" y2="650.17" gradientUnits="userSpaceOnUse">
<stop stop-color="white"/>
<stop offset="1" stop-color="white" stop-opacity="0"/>
</linearGradient>
<clipPath id="clip0_698_9072">
<rect width="391.109" height="412.947" fill="white" transform="translate(249.946 520)"/>
</clipPath>
</defs>
</svg>
