<svg width="40" height="40" viewBox="0 0 40 40" fill="none" xmlns="http://www.w3.org/2000/svg">
<rect width="40" height="40" rx="10" fill="#FFF3E2"/>
<path d="M10 20C10 16.229 10 14.343 11.172 13.172C12.343 12 14.229 12 18 12H22C25.771 12 27.657 12 28.828 13.172C30 14.343 30 16.229 30 20C30 23.771 30 25.657 28.828 26.828C27.657 28 25.771 28 22 28H18C14.229 28 12.343 28 11.172 26.828C10 25.657 10 23.771 10 20Z" stroke="#FFB44D" stroke-width="1.5"/>
<path d="M18 24H14M22 24H20.5M10 18H30" stroke="#FFB44D" stroke-width="1.5" stroke-linecap="round"/>
<path d="M22.1782 16.2432C22.1209 16.2432 22.0764 16.2283 22.0445 16.1986C22.0148 16.1668 22 16.1223 22 16.065V14.1782C22 14.1209 22.0148 14.0774 22.0445 14.0477C22.0764 14.0159 22.1209 14 22.1782 14H23.3395C23.3841 14 23.418 14.0117 23.4414 14.035C23.4647 14.0562 23.4764 14.088 23.4764 14.1305C23.4764 14.175 23.4647 14.2089 23.4414 14.2323C23.418 14.2556 23.3841 14.2673 23.3395 14.2673H22.3182V14.9705H23.2695C23.3162 14.9705 23.3502 14.9821 23.3714 15.0055C23.3947 15.0288 23.4064 15.0617 23.4064 15.1041C23.4064 15.1486 23.3947 15.1826 23.3714 15.2059C23.3502 15.2271 23.3162 15.2377 23.2695 15.2377H22.3182V15.9759H23.3395C23.3841 15.9759 23.418 15.9876 23.4414 16.0109C23.4647 16.0342 23.4764 16.0671 23.4764 16.1095C23.4764 16.1541 23.4647 16.188 23.4414 16.2114C23.418 16.2326 23.3841 16.2432 23.3395 16.2432H22.1782Z" fill="#FFB44D"/>
<path d="M24.0973 16.2432C24.04 16.2432 23.9955 16.2283 23.9637 16.1986C23.934 16.1668 23.9191 16.1223 23.9191 16.065V14.1782C23.9191 14.1209 23.934 14.0774 23.9637 14.0477C23.9955 14.0159 24.04 14 24.0973 14H24.8546C25.0094 14 25.1409 14.0233 25.2491 14.07C25.3594 14.1167 25.4432 14.1835 25.5005 14.2705C25.5599 14.3574 25.5896 14.4624 25.5896 14.5855C25.5896 14.7212 25.5493 14.8358 25.4687 14.9291C25.3881 15.0224 25.2788 15.085 25.1409 15.1168V15.0691C25.2979 15.0903 25.4209 15.1497 25.51 15.2473C25.5991 15.3427 25.6437 15.4679 25.6437 15.6227C25.6437 15.8221 25.5779 15.9759 25.4464 16.0841C25.3149 16.1902 25.1303 16.2432 24.8928 16.2432H24.0973ZM24.2373 15.9886H24.8546C25.0137 15.9886 25.1314 15.9579 25.2078 15.8964C25.2841 15.8327 25.3223 15.7373 25.3223 15.61C25.3223 15.4827 25.2841 15.3883 25.2078 15.3268C25.1314 15.2653 25.0137 15.2345 24.8546 15.2345H24.2373V15.9886ZM24.2373 14.98H24.8037C24.9564 14.98 25.072 14.9492 25.1505 14.8877C25.229 14.8262 25.2682 14.7361 25.2682 14.6173C25.2682 14.4985 25.229 14.4083 25.1505 14.3468C25.072 14.2853 24.9564 14.2545 24.8037 14.2545H24.2373V14.98Z" fill="#FFB44D"/>
<path d="M26.8151 16.2655C26.7621 16.2655 26.7207 16.2506 26.691 16.2209C26.6634 16.1912 26.6496 16.1498 26.6496 16.0968V14.2768H25.9751C25.9305 14.2768 25.8955 14.2652 25.8701 14.2418C25.8446 14.2164 25.8319 14.1814 25.8319 14.1368C25.8319 14.0923 25.8446 14.0583 25.8701 14.035C25.8955 14.0117 25.9305 14 25.9751 14H27.6519C27.6986 14 27.7346 14.0117 27.7601 14.035C27.7855 14.0583 27.7983 14.0923 27.7983 14.1368C27.7983 14.1814 27.7855 14.2164 27.7601 14.2418C27.7346 14.2652 27.6986 14.2768 27.6519 14.2768H26.9774V16.0968C26.9774 16.1498 26.9636 16.1912 26.936 16.2209C26.9105 16.2506 26.8702 16.2655 26.8151 16.2655Z" fill="#FFB44D"/>
</svg>
