<svg width="16" height="17" viewBox="0 0 16 17" fill="none" xmlns="http://www.w3.org/2000/svg">
<mask id="mask0_1865_10313" style="mask-type:alpha" maskUnits="userSpaceOnUse" x="0" y="0" width="16" height="17">
<rect y="0.5" width="16" height="16" fill="#D9D9D9"/>
</mask>
<g mask="url(#mask0_1865_10313)">
<path d="M2.26683 4.5L1.3335 5.43333L4.86683 8.96667C5.25572 9.35556 5.72794 9.55 6.2835 9.55C6.83905 9.55 7.31127 9.35556 7.70016 8.96667L8.46683 8.2C8.60016 8.06667 8.7585 8 8.94183 8C9.12516 8 9.2835 8.06667 9.41683 8.2L12.3835 11.1667H10.6668V12.5H14.6668V8.5H13.3335V10.2167L10.3502 7.25C9.96127 6.86111 9.48905 6.66667 8.9335 6.66667C8.37794 6.66667 7.90572 6.86111 7.51683 7.25L6.7335 8.03333C6.61127 8.15556 6.45572 8.21667 6.26683 8.21667C6.07794 8.21667 5.92238 8.15556 5.80016 8.03333L2.26683 4.5Z" fill="#FF4C00"/>
</g>
</svg>
