<svg width="16" height="17" viewBox="0 0 16 17" fill="none" xmlns="http://www.w3.org/2000/svg">
<mask id="mask0_1865_10165" style="mask-type:alpha" maskUnits="userSpaceOnUse" x="0" y="0" width="16" height="17">
<rect y="0.5" width="16" height="16" fill="#D9D9D9"/>
</mask>
<g mask="url(#mask0_1865_10165)">
<path d="M2.26683 12.5L1.3335 11.5667L4.86683 8.03333C5.25572 7.64444 5.72794 7.45 6.2835 7.45C6.83905 7.45 7.31127 7.64444 7.70016 8.03333L8.46683 8.8C8.60016 8.93333 8.7585 9 8.94183 9C9.12516 9 9.2835 8.93333 9.41683 8.8L12.3835 5.83333H10.6668V4.5H14.6668V8.5H13.3335V6.78333L10.3502 9.75C9.96127 10.1389 9.48905 10.3333 8.9335 10.3333C8.37794 10.3333 7.90572 10.1389 7.51683 9.75L6.7335 8.96667C6.61127 8.84444 6.45572 8.78333 6.26683 8.78333C6.07794 8.78333 5.92238 8.84444 5.80016 8.96667L2.26683 12.5Z" fill="#009D50"/>
</g>
</svg>
