<svg width="40" height="40" viewBox="0 0 40 40" fill="none" xmlns="http://www.w3.org/2000/svg">
<rect width="40" height="40" rx="10" fill="#0DA55A" fill-opacity="0.1"/>
<path d="M12 13.25C12 12.6533 12.2371 12.081 12.659 11.659C13.081 11.2371 13.6533 11 14.25 11H23.75C24.3467 11 24.919 11.2371 25.341 11.659C25.7629 12.081 26 12.6533 26 13.25V22H30V25.75C30 26.1768 29.9159 26.5994 29.7526 26.9937C29.5893 27.388 29.3499 27.7463 29.0481 28.0481C28.7463 28.3499 28.388 28.5893 27.9937 28.7526C27.5994 28.9159 27.1768 29 26.75 29H20.95C20.983 28.838 21 28.671 21 28.5V27.5H24.5V13.25C24.5 13.0511 24.421 12.8603 24.2803 12.7197C24.1397 12.579 23.9489 12.5 23.75 12.5H14.25C14.0511 12.5 13.8603 12.579 13.7197 12.7197C13.579 12.8603 13.5 13.0511 13.5 13.25V22H12V13.25ZM26 27.5H26.75C27.2141 27.5 27.6592 27.3156 27.9874 26.9874C28.3156 26.6592 28.5 26.2141 28.5 25.75V23.5H26V27.5ZM16.25 15C16.0511 15 15.8603 15.079 15.7197 15.2197C15.579 15.3603 15.5 15.5511 15.5 15.75C15.5 15.9489 15.579 16.1397 15.7197 16.2803C15.8603 16.421 16.0511 16.5 16.25 16.5H21.75C21.9489 16.5 22.1397 16.421 22.2803 16.2803C22.421 16.1397 22.5 15.9489 22.5 15.75C22.5 15.5511 22.421 15.3603 22.2803 15.2197C22.1397 15.079 21.9489 15 21.75 15H16.25ZM15.5 19.75C15.5 19.5511 15.579 19.3603 15.7197 19.2197C15.8603 19.079 16.0511 19 16.25 19H21.75C21.9489 19 22.1397 19.079 22.2803 19.2197C22.421 19.3603 22.5 19.5511 22.5 19.75C22.5 19.9489 22.421 20.1397 22.2803 20.2803C22.1397 20.421 21.9489 20.5 21.75 20.5H16.25C16.0511 20.5 15.8603 20.421 15.7197 20.2803C15.579 20.1397 15.5 19.9489 15.5 19.75ZM10.5 23C10.1022 23 9.72064 23.158 9.43934 23.4393C9.15804 23.7206 9 24.1022 9 24.5V28.5C9 28.8978 9.15804 29.2794 9.43934 29.5607C9.72064 29.842 10.1022 30 10.5 30H18.5C18.8978 30 19.2794 29.842 19.5607 29.5607C19.842 29.2794 20 28.8978 20 28.5V24.5C20 24.1022 19.842 23.7206 19.5607 23.4393C19.2794 23.158 18.8978 23 18.5 23H10.5ZM18 24C18 24.2652 18.1054 24.5196 18.2929 24.7071C18.4804 24.8946 18.7348 25 19 25V26C18.4696 26 17.9609 25.7893 17.5858 25.4142C17.2107 25.0391 17 24.5304 17 24H18ZM17 29C17 28.4696 17.2107 27.9609 17.5858 27.5858C17.9609 27.2107 18.4696 27 19 27V28C18.7348 28 18.4804 28.1054 18.2929 28.2929C18.1054 28.4804 18 28.7348 18 29H17ZM10 25C10.2652 25 10.5196 24.8946 10.7071 24.7071C10.8946 24.5196 11 24.2652 11 24H12C12 24.5304 11.7893 25.0391 11.4142 25.4142C11.0391 25.7893 10.5304 26 10 26V25ZM10 27C10.5304 27 11.0391 27.2107 11.4142 27.5858C11.7893 27.9609 12 28.4696 12 29H11C11 28.7348 10.8946 28.4804 10.7071 28.2929C10.5196 28.1054 10.2652 28 10 28V27ZM14.5 24.75C14.9641 24.75 15.4092 24.9344 15.7374 25.2626C16.0656 25.5908 16.25 26.0359 16.25 26.5C16.25 26.9641 16.0656 27.4092 15.7374 27.7374C15.4092 28.0656 14.9641 28.25 14.5 28.25C14.0359 28.25 13.5908 28.0656 13.2626 27.7374C12.9344 27.4092 12.75 26.9641 12.75 26.5C12.75 26.0359 12.9344 25.5908 13.2626 25.2626C13.5908 24.9344 14.0359 24.75 14.5 24.75Z" fill="#0DA55A"/>
</svg>
